<mxfile host="app.diagrams.net" modified="2024-02-14T07:44:11.132Z" agent="Mozilla/5.0 (Windows NT 10.0; Win64; x64; rv:122.0) Gecko/20100101 Firefox/122.0" etag="_CF-bjWCHmXpcdEzlTKe" version="23.0.0" type="device">
  <diagram id="C5RBs43oDa-KdzZeNtuy" name="Page-1">
    <mxGraphModel dx="2293" dy="631" grid="1" gridSize="10" guides="1" tooltips="1" connect="1" arrows="1" fold="1" page="1" pageScale="1" pageWidth="827" pageHeight="1169" math="0" shadow="0">
      <root>
        <mxCell id="WIyWlLk6GJQsqaUBKTNV-0" />
        <mxCell id="WIyWlLk6GJQsqaUBKTNV-1" parent="WIyWlLk6GJQsqaUBKTNV-0" />
        <mxCell id="WIyWlLk6GJQsqaUBKTNV-2" value="" style="rounded=0;html=1;jettySize=auto;orthogonalLoop=1;fontSize=11;endArrow=block;endFill=0;endSize=8;strokeWidth=1;shadow=0;labelBackgroundColor=none;edgeStyle=orthogonalEdgeStyle;entryX=0.5;entryY=0;entryDx=0;entryDy=0;" parent="WIyWlLk6GJQsqaUBKTNV-1" source="WIyWlLk6GJQsqaUBKTNV-3" target="oXc3ebr70QVshDGje8_M-0" edge="1">
          <mxGeometry relative="1" as="geometry">
            <mxPoint x="220" y="170" as="targetPoint" />
          </mxGeometry>
        </mxCell>
        <mxCell id="WIyWlLk6GJQsqaUBKTNV-3" value="Начало" style="rounded=1;whiteSpace=wrap;html=1;fontSize=12;glass=0;strokeWidth=1;shadow=0;" parent="WIyWlLk6GJQsqaUBKTNV-1" vertex="1">
          <mxGeometry x="200" y="110" width="120" height="40" as="geometry" />
        </mxCell>
        <mxCell id="oXc3ebr70QVshDGje8_M-2" value="" style="edgeStyle=orthogonalEdgeStyle;rounded=0;orthogonalLoop=1;jettySize=auto;html=1;" edge="1" parent="WIyWlLk6GJQsqaUBKTNV-1" source="oXc3ebr70QVshDGje8_M-0" target="oXc3ebr70QVshDGje8_M-1">
          <mxGeometry relative="1" as="geometry" />
        </mxCell>
        <mxCell id="oXc3ebr70QVshDGje8_M-0" value="Ввод данных&lt;br&gt;float a&lt;br&gt;float b&lt;br&gt;float c" style="shape=parallelogram;perimeter=parallelogramPerimeter;whiteSpace=wrap;html=1;fixedSize=1;" vertex="1" parent="WIyWlLk6GJQsqaUBKTNV-1">
          <mxGeometry x="190" y="170" width="140" height="80" as="geometry" />
        </mxCell>
        <mxCell id="oXc3ebr70QVshDGje8_M-3" value="Да" style="edgeStyle=orthogonalEdgeStyle;rounded=0;orthogonalLoop=1;jettySize=auto;html=1;exitX=1;exitY=0.5;exitDx=0;exitDy=0;entryX=0.5;entryY=0;entryDx=0;entryDy=0;" edge="1" parent="WIyWlLk6GJQsqaUBKTNV-1" source="oXc3ebr70QVshDGje8_M-1" target="oXc3ebr70QVshDGje8_M-7">
          <mxGeometry relative="1" as="geometry">
            <mxPoint x="360" y="460" as="targetPoint" />
          </mxGeometry>
        </mxCell>
        <mxCell id="oXc3ebr70QVshDGje8_M-59" value="Нет" style="edgeStyle=orthogonalEdgeStyle;rounded=0;orthogonalLoop=1;jettySize=auto;html=1;exitX=0;exitY=0.5;exitDx=0;exitDy=0;entryX=1;entryY=0.5;entryDx=0;entryDy=0;" edge="1" parent="WIyWlLk6GJQsqaUBKTNV-1" source="oXc3ebr70QVshDGje8_M-1" target="oXc3ebr70QVshDGje8_M-58">
          <mxGeometry relative="1" as="geometry" />
        </mxCell>
        <mxCell id="oXc3ebr70QVshDGje8_M-1" value="Данные типа float?" style="rhombus;whiteSpace=wrap;html=1;" vertex="1" parent="WIyWlLk6GJQsqaUBKTNV-1">
          <mxGeometry x="190" y="300" width="140" height="80" as="geometry" />
        </mxCell>
        <mxCell id="oXc3ebr70QVshDGje8_M-6" value="Да" style="edgeStyle=orthogonalEdgeStyle;rounded=0;orthogonalLoop=1;jettySize=auto;html=1;exitX=1;exitY=0.5;exitDx=0;exitDy=0;entryX=0.5;entryY=0;entryDx=0;entryDy=0;" edge="1" parent="WIyWlLk6GJQsqaUBKTNV-1" source="oXc3ebr70QVshDGje8_M-7" target="oXc3ebr70QVshDGje8_M-68">
          <mxGeometry relative="1" as="geometry">
            <mxPoint x="360" y="610" as="targetPoint" />
          </mxGeometry>
        </mxCell>
        <mxCell id="oXc3ebr70QVshDGje8_M-70" value="Нет" style="edgeStyle=orthogonalEdgeStyle;rounded=0;orthogonalLoop=1;jettySize=auto;html=1;exitX=0;exitY=0.5;exitDx=0;exitDy=0;entryX=0;entryY=0.5;entryDx=0;entryDy=0;" edge="1" parent="WIyWlLk6GJQsqaUBKTNV-1" source="oXc3ebr70QVshDGje8_M-7" target="oXc3ebr70QVshDGje8_M-23">
          <mxGeometry relative="1" as="geometry">
            <Array as="points">
              <mxPoint x="90" y="450" />
              <mxPoint x="90" y="820" />
            </Array>
          </mxGeometry>
        </mxCell>
        <mxCell id="oXc3ebr70QVshDGje8_M-7" value="a = 0 ?" style="rhombus;whiteSpace=wrap;html=1;" vertex="1" parent="WIyWlLk6GJQsqaUBKTNV-1">
          <mxGeometry x="190" y="410" width="140" height="80" as="geometry" />
        </mxCell>
        <mxCell id="oXc3ebr70QVshDGje8_M-72" style="edgeStyle=orthogonalEdgeStyle;rounded=0;orthogonalLoop=1;jettySize=auto;html=1;exitX=0;exitY=0.5;exitDx=0;exitDy=0;entryX=1;entryY=0.5;entryDx=0;entryDy=0;" edge="1" parent="WIyWlLk6GJQsqaUBKTNV-1" source="oXc3ebr70QVshDGje8_M-8" target="oXc3ebr70QVshDGje8_M-20">
          <mxGeometry relative="1" as="geometry" />
        </mxCell>
        <mxCell id="oXc3ebr70QVshDGje8_M-8" value="float x" style="shape=document;whiteSpace=wrap;html=1;boundedLbl=1;" vertex="1" parent="WIyWlLk6GJQsqaUBKTNV-1">
          <mxGeometry x="-300.06" y="530" width="120" height="80" as="geometry" />
        </mxCell>
        <mxCell id="oXc3ebr70QVshDGje8_M-10" value="x - единственный корень получившегося линейного уравнения" style="rounded=0;whiteSpace=wrap;html=1;dashed=1;" vertex="1" parent="WIyWlLk6GJQsqaUBKTNV-1">
          <mxGeometry x="-310.06" y="400" width="140" height="80" as="geometry" />
        </mxCell>
        <mxCell id="oXc3ebr70QVshDGje8_M-11" value="" style="endArrow=none;dashed=1;html=1;rounded=0;entryX=0.5;entryY=1;entryDx=0;entryDy=0;exitX=0.5;exitY=0;exitDx=0;exitDy=0;" edge="1" parent="WIyWlLk6GJQsqaUBKTNV-1" source="oXc3ebr70QVshDGje8_M-8" target="oXc3ebr70QVshDGje8_M-10">
          <mxGeometry width="50" height="50" relative="1" as="geometry">
            <mxPoint x="-330.06" y="650" as="sourcePoint" />
            <mxPoint x="-280.06" y="600" as="targetPoint" />
          </mxGeometry>
        </mxCell>
        <mxCell id="oXc3ebr70QVshDGje8_M-12" value="Останов" style="rounded=1;whiteSpace=wrap;html=1;" vertex="1" parent="WIyWlLk6GJQsqaUBKTNV-1">
          <mxGeometry x="680" y="590" width="120" height="60" as="geometry" />
        </mxCell>
        <mxCell id="oXc3ebr70QVshDGje8_M-18" value="Нет" style="edgeStyle=orthogonalEdgeStyle;rounded=0;orthogonalLoop=1;jettySize=auto;html=1;" edge="1" parent="WIyWlLk6GJQsqaUBKTNV-1" source="oXc3ebr70QVshDGje8_M-14" target="oXc3ebr70QVshDGje8_M-17">
          <mxGeometry relative="1" as="geometry" />
        </mxCell>
        <mxCell id="oXc3ebr70QVshDGje8_M-14" value="c = 0 ?" style="rhombus;whiteSpace=wrap;html=1;" vertex="1" parent="WIyWlLk6GJQsqaUBKTNV-1">
          <mxGeometry x="190" y="650" width="140" height="80" as="geometry" />
        </mxCell>
        <mxCell id="oXc3ebr70QVshDGje8_M-22" style="edgeStyle=orthogonalEdgeStyle;rounded=0;orthogonalLoop=1;jettySize=auto;html=1;exitX=1;exitY=0.5;exitDx=0;exitDy=0;entryX=0;entryY=0.5;entryDx=0;entryDy=0;" edge="1" parent="WIyWlLk6GJQsqaUBKTNV-1" source="oXc3ebr70QVshDGje8_M-17" target="oXc3ebr70QVshDGje8_M-12">
          <mxGeometry relative="1" as="geometry" />
        </mxCell>
        <mxCell id="oXc3ebr70QVshDGje8_M-17" value="&quot;решений нет&quot;" style="shape=document;whiteSpace=wrap;html=1;boundedLbl=1;" vertex="1" parent="WIyWlLk6GJQsqaUBKTNV-1">
          <mxGeometry x="470" y="580" width="120" height="80" as="geometry" />
        </mxCell>
        <mxCell id="oXc3ebr70QVshDGje8_M-20" value="Останов" style="rounded=1;whiteSpace=wrap;html=1;" vertex="1" parent="WIyWlLk6GJQsqaUBKTNV-1">
          <mxGeometry x="-523.06" y="540" width="120" height="60" as="geometry" />
        </mxCell>
        <mxCell id="oXc3ebr70QVshDGje8_M-26" style="edgeStyle=orthogonalEdgeStyle;rounded=0;orthogonalLoop=1;jettySize=auto;html=1;exitX=0.5;exitY=1;exitDx=0;exitDy=0;entryX=0.5;entryY=0;entryDx=0;entryDy=0;" edge="1" parent="WIyWlLk6GJQsqaUBKTNV-1" source="oXc3ebr70QVshDGje8_M-23" target="oXc3ebr70QVshDGje8_M-25">
          <mxGeometry relative="1" as="geometry" />
        </mxCell>
        <mxCell id="oXc3ebr70QVshDGje8_M-23" value="Вычисление дискриминанта&lt;br&gt;&lt;br&gt;D = b^2 + -4ac" style="whiteSpace=wrap;html=1;" vertex="1" parent="WIyWlLk6GJQsqaUBKTNV-1">
          <mxGeometry x="200" y="775" width="120" height="90" as="geometry" />
        </mxCell>
        <mxCell id="oXc3ebr70QVshDGje8_M-49" value="Да" style="edgeStyle=orthogonalEdgeStyle;rounded=0;orthogonalLoop=1;jettySize=auto;html=1;exitX=1;exitY=0.5;exitDx=0;exitDy=0;entryX=0;entryY=0.5;entryDx=0;entryDy=0;" edge="1" parent="WIyWlLk6GJQsqaUBKTNV-1" source="oXc3ebr70QVshDGje8_M-25" target="oXc3ebr70QVshDGje8_M-42">
          <mxGeometry relative="1" as="geometry" />
        </mxCell>
        <mxCell id="oXc3ebr70QVshDGje8_M-25" value="D &amp;gt; 0?" style="rhombus;whiteSpace=wrap;html=1;" vertex="1" parent="WIyWlLk6GJQsqaUBKTNV-1">
          <mxGeometry x="170" y="885" width="180" height="80" as="geometry" />
        </mxCell>
        <mxCell id="oXc3ebr70QVshDGje8_M-27" value="Нет" style="edgeStyle=orthogonalEdgeStyle;rounded=0;orthogonalLoop=1;jettySize=auto;html=1;entryX=0.5;entryY=0;entryDx=0;entryDy=0;exitX=0.5;exitY=1;exitDx=0;exitDy=0;" edge="1" parent="WIyWlLk6GJQsqaUBKTNV-1" target="oXc3ebr70QVshDGje8_M-28" source="oXc3ebr70QVshDGje8_M-25">
          <mxGeometry relative="1" as="geometry">
            <mxPoint x="260" y="970" as="sourcePoint" />
          </mxGeometry>
        </mxCell>
        <mxCell id="oXc3ebr70QVshDGje8_M-44" value="Да" style="edgeStyle=orthogonalEdgeStyle;rounded=0;orthogonalLoop=1;jettySize=auto;html=1;exitX=1;exitY=0.5;exitDx=0;exitDy=0;entryX=0;entryY=0.5;entryDx=0;entryDy=0;" edge="1" parent="WIyWlLk6GJQsqaUBKTNV-1" source="oXc3ebr70QVshDGje8_M-28" target="oXc3ebr70QVshDGje8_M-39">
          <mxGeometry relative="1" as="geometry" />
        </mxCell>
        <mxCell id="oXc3ebr70QVshDGje8_M-28" value="D = 0?" style="rhombus;whiteSpace=wrap;html=1;" vertex="1" parent="WIyWlLk6GJQsqaUBKTNV-1">
          <mxGeometry x="170" y="1140" width="180" height="80" as="geometry" />
        </mxCell>
        <mxCell id="oXc3ebr70QVshDGje8_M-32" value="Нет" style="edgeStyle=orthogonalEdgeStyle;rounded=0;orthogonalLoop=1;jettySize=auto;html=1;exitX=0.5;exitY=1;exitDx=0;exitDy=0;" edge="1" parent="WIyWlLk6GJQsqaUBKTNV-1" source="oXc3ebr70QVshDGje8_M-28" target="oXc3ebr70QVshDGje8_M-31">
          <mxGeometry relative="1" as="geometry">
            <mxPoint x="350" y="1300" as="sourcePoint" />
            <Array as="points">
              <mxPoint x="260" y="1300" />
            </Array>
          </mxGeometry>
        </mxCell>
        <mxCell id="oXc3ebr70QVshDGje8_M-34" value="" style="edgeStyle=orthogonalEdgeStyle;rounded=0;orthogonalLoop=1;jettySize=auto;html=1;" edge="1" parent="WIyWlLk6GJQsqaUBKTNV-1" source="oXc3ebr70QVshDGje8_M-31" target="oXc3ebr70QVshDGje8_M-33">
          <mxGeometry relative="1" as="geometry" />
        </mxCell>
        <mxCell id="oXc3ebr70QVshDGje8_M-31" value="&quot;решений нет&quot;" style="shape=document;whiteSpace=wrap;html=1;boundedLbl=1;" vertex="1" parent="WIyWlLk6GJQsqaUBKTNV-1">
          <mxGeometry x="460" y="1260" width="120" height="80" as="geometry" />
        </mxCell>
        <mxCell id="oXc3ebr70QVshDGje8_M-33" value="Останов" style="rounded=1;whiteSpace=wrap;html=1;" vertex="1" parent="WIyWlLk6GJQsqaUBKTNV-1">
          <mxGeometry x="660" y="1270" width="120" height="60" as="geometry" />
        </mxCell>
        <mxCell id="oXc3ebr70QVshDGje8_M-38" value="" style="edgeStyle=orthogonalEdgeStyle;rounded=0;orthogonalLoop=1;jettySize=auto;html=1;" edge="1" parent="WIyWlLk6GJQsqaUBKTNV-1" source="oXc3ebr70QVshDGje8_M-39" target="oXc3ebr70QVshDGje8_M-40">
          <mxGeometry relative="1" as="geometry" />
        </mxCell>
        <mxCell id="oXc3ebr70QVshDGje8_M-39" value="float x" style="shape=document;whiteSpace=wrap;html=1;boundedLbl=1;" vertex="1" parent="WIyWlLk6GJQsqaUBKTNV-1">
          <mxGeometry x="460" y="1140" width="120" height="80" as="geometry" />
        </mxCell>
        <mxCell id="oXc3ebr70QVshDGje8_M-40" value="Останов" style="rounded=1;whiteSpace=wrap;html=1;" vertex="1" parent="WIyWlLk6GJQsqaUBKTNV-1">
          <mxGeometry x="660" y="1150" width="120" height="60" as="geometry" />
        </mxCell>
        <mxCell id="oXc3ebr70QVshDGje8_M-41" value="" style="edgeStyle=orthogonalEdgeStyle;rounded=0;orthogonalLoop=1;jettySize=auto;html=1;" edge="1" parent="WIyWlLk6GJQsqaUBKTNV-1" source="oXc3ebr70QVshDGje8_M-42" target="oXc3ebr70QVshDGje8_M-43">
          <mxGeometry relative="1" as="geometry" />
        </mxCell>
        <mxCell id="oXc3ebr70QVshDGje8_M-42" value="float x1&lt;br&gt;float x2" style="shape=document;whiteSpace=wrap;html=1;boundedLbl=1;" vertex="1" parent="WIyWlLk6GJQsqaUBKTNV-1">
          <mxGeometry x="460" y="830" width="120" height="80" as="geometry" />
        </mxCell>
        <mxCell id="oXc3ebr70QVshDGje8_M-43" value="Останов" style="rounded=1;whiteSpace=wrap;html=1;" vertex="1" parent="WIyWlLk6GJQsqaUBKTNV-1">
          <mxGeometry x="660" y="840" width="120" height="60" as="geometry" />
        </mxCell>
        <mxCell id="oXc3ebr70QVshDGje8_M-47" value="x - кратный корень квадратного уравнения" style="rounded=0;whiteSpace=wrap;html=1;dashed=1;" vertex="1" parent="WIyWlLk6GJQsqaUBKTNV-1">
          <mxGeometry x="590" y="1040" width="120" height="60" as="geometry" />
        </mxCell>
        <mxCell id="oXc3ebr70QVshDGje8_M-48" value="" style="endArrow=none;dashed=1;html=1;rounded=0;exitX=0.5;exitY=0;exitDx=0;exitDy=0;entryX=0;entryY=0.5;entryDx=0;entryDy=0;" edge="1" parent="WIyWlLk6GJQsqaUBKTNV-1" source="oXc3ebr70QVshDGje8_M-39" target="oXc3ebr70QVshDGje8_M-47">
          <mxGeometry width="50" height="50" relative="1" as="geometry">
            <mxPoint x="540" y="1120" as="sourcePoint" />
            <mxPoint x="590" y="1070" as="targetPoint" />
          </mxGeometry>
        </mxCell>
        <mxCell id="oXc3ebr70QVshDGje8_M-50" value="x1, x2 - отличные действительные корни квадратного уравнения" style="rounded=0;whiteSpace=wrap;html=1;dashed=1;" vertex="1" parent="WIyWlLk6GJQsqaUBKTNV-1">
          <mxGeometry x="590" y="730" width="120" height="60" as="geometry" />
        </mxCell>
        <mxCell id="oXc3ebr70QVshDGje8_M-51" value="" style="endArrow=none;dashed=1;html=1;rounded=0;exitX=0.5;exitY=0;exitDx=0;exitDy=0;entryX=0;entryY=0.5;entryDx=0;entryDy=0;" edge="1" parent="WIyWlLk6GJQsqaUBKTNV-1" target="oXc3ebr70QVshDGje8_M-50">
          <mxGeometry width="50" height="50" relative="1" as="geometry">
            <mxPoint x="520" y="830" as="sourcePoint" />
            <mxPoint x="590" y="760" as="targetPoint" />
          </mxGeometry>
        </mxCell>
        <mxCell id="oXc3ebr70QVshDGje8_M-76" style="edgeStyle=orthogonalEdgeStyle;rounded=0;orthogonalLoop=1;jettySize=auto;html=1;exitX=0.5;exitY=0;exitDx=0;exitDy=0;entryX=0;entryY=0.5;entryDx=0;entryDy=0;" edge="1" parent="WIyWlLk6GJQsqaUBKTNV-1" source="oXc3ebr70QVshDGje8_M-58" target="oXc3ebr70QVshDGje8_M-0">
          <mxGeometry relative="1" as="geometry">
            <Array as="points">
              <mxPoint x="70" y="210" />
            </Array>
          </mxGeometry>
        </mxCell>
        <mxCell id="oXc3ebr70QVshDGje8_M-58" value="&quot;введены некорректные данные&quot;" style="shape=document;whiteSpace=wrap;html=1;boundedLbl=1;" vertex="1" parent="WIyWlLk6GJQsqaUBKTNV-1">
          <mxGeometry x="10" y="300" width="120" height="80" as="geometry" />
        </mxCell>
        <mxCell id="oXc3ebr70QVshDGje8_M-63" value="Останов" style="rounded=1;whiteSpace=wrap;html=1;" vertex="1" parent="WIyWlLk6GJQsqaUBKTNV-1">
          <mxGeometry x="-523.06" y="670" width="120" height="60" as="geometry" />
        </mxCell>
        <mxCell id="oXc3ebr70QVshDGje8_M-74" style="edgeStyle=orthogonalEdgeStyle;rounded=0;orthogonalLoop=1;jettySize=auto;html=1;exitX=0;exitY=0.5;exitDx=0;exitDy=0;entryX=1;entryY=0.5;entryDx=0;entryDy=0;" edge="1" parent="WIyWlLk6GJQsqaUBKTNV-1" source="oXc3ebr70QVshDGje8_M-64" target="oXc3ebr70QVshDGje8_M-63">
          <mxGeometry relative="1" as="geometry" />
        </mxCell>
        <mxCell id="oXc3ebr70QVshDGje8_M-64" value="&quot;x - любое&quot;" style="shape=document;whiteSpace=wrap;html=1;boundedLbl=1;" vertex="1" parent="WIyWlLk6GJQsqaUBKTNV-1">
          <mxGeometry x="-300.06" y="660" width="120" height="80" as="geometry" />
        </mxCell>
        <mxCell id="oXc3ebr70QVshDGje8_M-71" value="Да" style="edgeStyle=orthogonalEdgeStyle;rounded=0;orthogonalLoop=1;jettySize=auto;html=1;exitX=1;exitY=0.5;exitDx=0;exitDy=0;entryX=0.5;entryY=0;entryDx=0;entryDy=0;" edge="1" parent="WIyWlLk6GJQsqaUBKTNV-1" source="oXc3ebr70QVshDGje8_M-68" target="oXc3ebr70QVshDGje8_M-14">
          <mxGeometry relative="1" as="geometry" />
        </mxCell>
        <mxCell id="oXc3ebr70QVshDGje8_M-73" value="Нет" style="edgeStyle=orthogonalEdgeStyle;rounded=0;orthogonalLoop=1;jettySize=auto;html=1;exitX=0;exitY=0.5;exitDx=0;exitDy=0;entryX=1;entryY=0.5;entryDx=0;entryDy=0;" edge="1" parent="WIyWlLk6GJQsqaUBKTNV-1" source="oXc3ebr70QVshDGje8_M-68" target="oXc3ebr70QVshDGje8_M-8">
          <mxGeometry relative="1" as="geometry" />
        </mxCell>
        <mxCell id="oXc3ebr70QVshDGje8_M-68" value="b = 0 ?" style="rhombus;whiteSpace=wrap;html=1;" vertex="1" parent="WIyWlLk6GJQsqaUBKTNV-1">
          <mxGeometry x="195" y="530" width="130" height="80" as="geometry" />
        </mxCell>
        <mxCell id="oXc3ebr70QVshDGje8_M-75" value="Да" style="edgeStyle=orthogonalEdgeStyle;rounded=0;orthogonalLoop=1;jettySize=auto;html=1;exitX=0;exitY=0.5;exitDx=0;exitDy=0;entryX=1.008;entryY=0.377;entryDx=0;entryDy=0;entryPerimeter=0;" edge="1" parent="WIyWlLk6GJQsqaUBKTNV-1" source="oXc3ebr70QVshDGje8_M-14" target="oXc3ebr70QVshDGje8_M-64">
          <mxGeometry relative="1" as="geometry" />
        </mxCell>
      </root>
    </mxGraphModel>
  </diagram>
</mxfile>
